<svg 
	 viewBox="0 0 138 32" 
	 fill="none" 
	 xmlns="http://www.w3.org/2000/svg">
<g clip-path="url(#clip0_141_6317)">
<g clip-path="url(#clip1_141_6317)">
<path fill-rule="evenodd" clip-rule="evenodd" d="M16 32C24.8366 32 32 24.8366 32 16C32 7.16344 24.8366 0 16 0C7.16344 0 0 7.16344 0 16C0 24.8366 7.16344 32 16 32ZM16 27.9273C22.5872 27.9273 27.9273 22.5872 27.9273 16C27.9273 9.41275 22.5872 4.07273 16 4.07273C9.41275 4.07273 4.07273 9.41275 4.07273 16C4.07273 22.5872 9.41275 27.9273 16 27.9273Z" fill="#DC3154"/>
</g>
<g clip-path="url(#clip2_141_6317)">
<path d="M44.5091 1.45328H50.5937C54.1584 1.45328 56.3095 3.54295 56.3095 6.61598V6.67744C56.3095 10.1192 53.6053 11.9016 50.2864 11.9016H47.7665V16.3882H44.5091V1.45328ZM50.3479 8.95149C52.0073 8.95149 52.9292 7.96812 52.9292 6.67744V6.61598C52.9292 5.14092 51.8844 4.34193 50.2864 4.34193H47.7665V8.95149L50.3479 8.95149Z" fill="white"/>
<path d="M58.4416 0.872742H61.822V3.76139H58.4416V0.872742ZM58.5031 5.05207H61.7605V16.4838H58.5031V5.05207Z" fill="white"/>
<path d="M64.8274 5.12079H68.0849V6.78023C68.8838 5.7354 69.9901 4.93641 71.6496 4.93641C74.2924 4.93641 76.8737 7.02607 76.8737 10.8366V10.8981C76.8737 14.7087 74.3538 16.7983 71.6496 16.7983C69.9287 16.7983 68.8838 15.9993 68.0849 15.0774V19.9943H64.8274V5.12079ZM73.6163 10.8366C73.6163 8.86989 72.3256 7.64068 70.8506 7.64068C69.3141 7.64068 68.0849 8.86989 68.0849 10.7752V10.8366C68.0849 12.7419 69.3141 13.9711 70.8506 13.9711C72.3256 13.9711 73.6163 12.7419 73.6163 10.8366Z" fill="white"/>
<path d="M78.7599 10.8981C78.7599 7.57922 81.0955 4.93641 84.4143 4.93641C88.2249 4.93641 90.0073 7.88653 90.0073 11.1439C90.0073 11.3898 90.0073 11.6971 89.9458 12.0044H82.0174C82.3247 13.4795 83.3695 14.217 84.7831 14.217C85.8894 14.217 86.6884 13.8482 87.5488 13.0492L89.3927 14.7087C88.3478 16.0608 86.8113 16.8598 84.7216 16.8598C81.3413 16.7983 78.7599 14.3399 78.7599 10.8981ZM86.8113 9.91473C86.6269 8.43967 85.7665 7.4563 84.4143 7.4563C83.0622 7.4563 82.2017 8.43967 81.9559 9.91473H86.8113Z" fill="white"/>
<path d="M94.0478 4.46484H89.4997V1.45327H101.853V4.46484H97.3052V16.3268H94.0478V4.46484Z" fill="white"/>
<path d="M101.4 10.8981C101.4 7.57922 103.736 4.93641 107.055 4.93641C110.865 4.93641 112.648 7.88652 112.648 11.1439C112.648 11.3898 112.648 11.6971 112.586 12.0044H104.596C104.904 13.4794 105.949 14.217 107.362 14.217C108.468 14.217 109.267 13.8482 110.128 13.0492L111.972 14.7087C110.927 16.0608 109.39 16.8598 107.301 16.8598C103.92 16.7983 101.4 14.3399 101.4 10.8981ZM109.452 9.91473C109.267 8.43967 108.407 7.4563 107.055 7.4563C105.703 7.4563 104.842 8.43967 104.596 9.91473H109.452Z" fill="white"/>
<path d="M114.462 10.8981C114.462 7.57922 116.982 4.93641 120.424 4.93641C122.575 4.93641 123.927 5.67394 124.972 6.84169L123.005 8.99282C122.268 8.25529 121.53 7.7636 120.424 7.7636C118.826 7.7636 117.658 9.1772 117.658 10.8981V10.9596C117.658 12.6805 118.764 14.0941 120.547 14.0941C121.653 14.0941 122.391 13.6024 123.19 12.8648L125.095 14.7701C123.989 15.9993 122.698 16.8598 120.424 16.8598C116.921 16.7983 114.462 14.1555 114.462 10.8981Z" fill="white"/>
<path d="M130.553 0.872742V6.65005C131.29 5.66668 132.274 4.80623 133.872 4.80623C136.33 4.80623 137.744 6.4042 137.744 9.04701V16.4223H134.486V10.0918C134.486 8.55533 133.749 7.75634 132.519 7.75634C131.29 7.75634 130.491 8.55533 130.491 10.0918V16.4838H127.234V0.872742H130.553Z" fill="white"/>
</g>
<path d="M44.6837 21.3265H47.4458C50.3127 21.3265 52.7869 22.5309 52.7869 25.7905C52.7869 29.0502 50.3127 30.2545 47.4458 30.2545H44.6837V21.3265ZM45.6655 22.1905V29.3905H47.5113C49.344 29.3905 51.7397 28.8145 51.7397 25.7905C51.7397 22.7665 49.344 22.1905 47.5113 22.1905H45.6655Z" fill="white"/>
<path d="M57.1343 24.2589C58.8231 24.2589 60.1976 25.6204 60.1976 27.3091C60.1976 28.9978 58.8231 30.3724 57.1343 30.3724C55.4456 30.3724 54.0842 28.9978 54.0842 27.3091C54.0842 25.6204 55.4456 24.2589 57.1343 24.2589ZM57.1474 25.0574C55.9169 25.0574 55.0136 26.0654 55.0136 27.3091C55.0136 28.5527 55.9169 29.5738 57.1474 29.5738C58.378 29.5738 59.2682 28.5527 59.2682 27.3091C59.2682 26.0654 58.378 25.0574 57.1474 25.0574Z" fill="white"/>
<path d="M70.0952 24.3767L67.5293 30.3724H67.189L65.4217 25.9345L63.6544 30.3724H63.3141L60.7482 24.3767H61.6777L63.4581 28.5527L65.1337 24.3767H65.7228L67.3722 28.5527L69.1526 24.3767H70.0952Z" fill="white"/>
<path d="M71.1002 24.3767H72.0035V25.2669C72.4355 24.6909 73.0115 24.2589 73.8493 24.2589C75.1715 24.2589 75.9569 25.2276 75.9569 26.7462V30.2545H75.0536V26.8247C75.0536 25.8298 74.674 25.0574 73.6398 25.0574C73.2995 25.0574 72.5533 25.1622 72.0035 26.0916V30.2545H71.1002V24.3767Z" fill="white"/>
<path d="M78.5776 21.3265V30.2545H77.6743V21.3265H78.5776Z" fill="white"/>
<path d="M83.1622 24.2589C84.851 24.2589 86.2255 25.6204 86.2255 27.3091C86.2255 28.9978 84.851 30.3724 83.1622 30.3724C81.4735 30.3724 80.1121 28.9978 80.1121 27.3091C80.1121 25.6204 81.4735 24.2589 83.1622 24.2589ZM83.1753 25.0574C81.9448 25.0574 81.0415 26.0654 81.0415 27.3091C81.0415 28.5527 81.9448 29.5738 83.1753 29.5738C84.4059 29.5738 85.2961 28.5527 85.2961 27.3091C85.2961 26.0654 84.4059 25.0574 83.1753 25.0574Z" fill="white"/>
<path d="M92.506 29.2204V29.8356C91.7729 30.3593 91.498 30.3724 91.3409 30.3724C90.8565 30.3724 90.7518 29.9796 90.6994 29.7047C89.9663 30.2545 89.5082 30.3724 88.9845 30.3724C88.1598 30.3724 87.466 29.744 87.466 28.88C87.466 27.9244 88.2514 27.152 90.6863 26.72V26.1964C90.6863 25.8167 90.6209 25.0574 89.5212 25.0574C88.7489 25.0574 88.1991 25.4502 87.6885 25.9214V24.9789C87.9765 24.7302 88.6442 24.2589 89.5998 24.2589C91.2754 24.2589 91.5896 25.4371 91.5896 26.1047V29.3251C91.5896 29.5738 91.6158 29.6393 91.7467 29.6393C91.8645 29.6393 92.1525 29.5084 92.506 29.2204ZM90.6863 29.0894V27.3091C89.1809 27.584 88.3692 28.0814 88.3692 28.8145C88.3692 29.5214 89.0238 29.7178 89.3642 29.7178C89.9925 29.7178 90.4638 29.2989 90.6863 29.0894Z" fill="white"/>
<path d="M98.6518 30.2545H96.5835C94.5282 30.2545 93.3369 29.2073 93.3369 27.3222C93.3369 25.6727 94.3711 24.2589 96.2562 24.2589C96.9762 24.2589 97.4999 24.5076 97.7486 24.6124V21.3265H98.6518V30.2545ZM97.7486 29.456V25.4371C97.5391 25.3193 97.0679 25.0574 96.4002 25.0574C94.9471 25.0574 94.2664 26.1178 94.2664 27.296C94.2664 28.7098 95.2089 29.456 96.5966 29.456H97.7486Z" fill="white"/>
<path d="M105.468 27.1651V27.3745H101.109C101.109 28.7884 102.091 29.5738 103.217 29.5738C104.369 29.5738 105.089 28.9847 105.377 28.7491V29.6654C105.01 29.9142 104.355 30.3724 103.112 30.3724C101.148 30.3724 100.18 28.88 100.18 27.296C100.18 25.2538 101.541 24.2589 102.876 24.2589C104.329 24.2589 105.468 25.4502 105.468 27.1651ZM101.161 26.72H104.539C104.408 25.4502 103.544 25.0574 102.902 25.0574C102.169 25.0574 101.384 25.5287 101.161 26.72Z" fill="white"/>
<path d="M106.914 24.3767H107.817V25.6727C107.974 25.424 108.315 24.9134 108.799 24.5862C108.917 24.5076 109.297 24.2589 109.689 24.2589C110.252 24.2589 110.868 24.7694 111.09 24.9527L110.606 25.7382C110.409 25.568 109.977 25.1884 109.467 25.1884C108.943 25.1884 108.302 25.6596 108.027 26.3011C107.817 26.7724 107.817 27.4138 107.817 27.7149V30.2545H106.914V24.3767Z" fill="white"/>
</g>
<defs>
<clipPath id="clip0_141_6317">
<rect width="137.891" height="32" fill="white"/>
</clipPath>
<clipPath id="clip1_141_6317">
<rect width="32" height="32" rx="16" fill="white"/>
</clipPath>
<clipPath id="clip2_141_6317">
<rect width="93.3818" height="19.2" fill="white" transform="translate(44.5091 0.872742)"/>
</clipPath>
</defs>
</svg>
